<mxfile host="app.diagrams.net" modified="2022-07-11T06:34:15.409Z" agent="5.0 (Windows NT 10.0; Win64; x64) AppleWebKit/537.36 (KHTML, like Gecko) Chrome/103.0.5060.114 Safari/537.36 Edg/103.0.1264.49" etag="81ILkVevFxA4V3Fs_4Vb" version="20.0.4" type="github">
  <diagram id="C6OX11pUsywgYTWx1f4p" name="Page-1">
    <mxGraphModel dx="1483" dy="816" grid="1" gridSize="10" guides="1" tooltips="1" connect="1" arrows="1" fold="1" page="0" pageScale="1" pageWidth="827" pageHeight="1169" math="0" shadow="0">
      <root>
        <mxCell id="0" />
        <mxCell id="1" parent="0" />
        <mxCell id="GOCetqZbydDTcwRi5FND-1" value="User" style="shape=umlActor;verticalLabelPosition=bottom;verticalAlign=top;html=1;outlineConnect=0;labelBackgroundColor=none;" parent="1" vertex="1">
          <mxGeometry x="470" y="280" width="30" height="60" as="geometry" />
        </mxCell>
        <mxCell id="HhRDs5ZZaX0OzWnAWIKS-49" style="edgeStyle=orthogonalEdgeStyle;rounded=0;orthogonalLoop=1;jettySize=auto;html=1;" edge="1" parent="1" source="GOCetqZbydDTcwRi5FND-2" target="GOCetqZbydDTcwRi5FND-1">
          <mxGeometry relative="1" as="geometry" />
        </mxCell>
        <mxCell id="GOCetqZbydDTcwRi5FND-2" value="Guest" style="shape=umlActor;verticalLabelPosition=bottom;verticalAlign=top;html=1;outlineConnect=0;labelBackgroundColor=none;" parent="1" vertex="1">
          <mxGeometry x="470" y="120" width="30" height="60" as="geometry" />
        </mxCell>
        <mxCell id="GOCetqZbydDTcwRi5FND-3" value="Admin" style="shape=umlActor;verticalLabelPosition=bottom;verticalAlign=top;html=1;outlineConnect=0;labelBackgroundColor=none;" parent="1" vertex="1">
          <mxGeometry x="470" y="440" width="30" height="60" as="geometry" />
        </mxCell>
        <mxCell id="HhRDs5ZZaX0OzWnAWIKS-2" value="작성글 조회" style="ellipse;whiteSpace=wrap;html=1;" vertex="1" parent="1">
          <mxGeometry x="180" y="320" width="140" height="70" as="geometry" />
        </mxCell>
        <mxCell id="HhRDs5ZZaX0OzWnAWIKS-3" value="회원탈퇴" style="ellipse;whiteSpace=wrap;html=1;" vertex="1" parent="1">
          <mxGeometry x="180" y="390" width="140" height="70" as="geometry" />
        </mxCell>
        <mxCell id="HhRDs5ZZaX0OzWnAWIKS-4" value="게시글 검색" style="ellipse;whiteSpace=wrap;html=1;" vertex="1" parent="1">
          <mxGeometry x="180" y="250" width="140" height="70" as="geometry" />
        </mxCell>
        <mxCell id="HhRDs5ZZaX0OzWnAWIKS-5" value="사용자 로그인" style="ellipse;whiteSpace=wrap;html=1;" vertex="1" parent="1">
          <mxGeometry x="180" y="460" width="140" height="70" as="geometry" />
        </mxCell>
        <mxCell id="HhRDs5ZZaX0OzWnAWIKS-6" value="관리자 게시판 조회" style="ellipse;whiteSpace=wrap;html=1;" vertex="1" parent="1">
          <mxGeometry x="180" y="180" width="140" height="70" as="geometry" />
        </mxCell>
        <mxCell id="HhRDs5ZZaX0OzWnAWIKS-7" value="회원 등록" style="ellipse;whiteSpace=wrap;html=1;" vertex="1" parent="1">
          <mxGeometry x="180" y="110" width="140" height="70" as="geometry" />
        </mxCell>
        <mxCell id="HhRDs5ZZaX0OzWnAWIKS-8" value="Use Case" style="ellipse;whiteSpace=wrap;html=1;" vertex="1" parent="1">
          <mxGeometry x="750" y="380" width="140" height="70" as="geometry" />
        </mxCell>
        <mxCell id="HhRDs5ZZaX0OzWnAWIKS-9" value="Use Case" style="ellipse;whiteSpace=wrap;html=1;" vertex="1" parent="1">
          <mxGeometry x="930" y="180" width="140" height="70" as="geometry" />
        </mxCell>
        <mxCell id="HhRDs5ZZaX0OzWnAWIKS-33" style="edgeStyle=orthogonalEdgeStyle;rounded=0;orthogonalLoop=1;jettySize=auto;html=1;entryX=0.5;entryY=1;entryDx=0;entryDy=0;" edge="1" parent="1" source="HhRDs5ZZaX0OzWnAWIKS-10" target="HhRDs5ZZaX0OzWnAWIKS-12">
          <mxGeometry relative="1" as="geometry" />
        </mxCell>
        <mxCell id="HhRDs5ZZaX0OzWnAWIKS-10" value="관리자 게시글 수정" style="ellipse;whiteSpace=wrap;html=1;" vertex="1" parent="1">
          <mxGeometry x="200" y="820" width="140" height="70" as="geometry" />
        </mxCell>
        <mxCell id="HhRDs5ZZaX0OzWnAWIKS-32" style="edgeStyle=orthogonalEdgeStyle;rounded=0;orthogonalLoop=1;jettySize=auto;html=1;entryX=0.5;entryY=1;entryDx=0;entryDy=0;" edge="1" parent="1" source="HhRDs5ZZaX0OzWnAWIKS-11" target="HhRDs5ZZaX0OzWnAWIKS-12">
          <mxGeometry relative="1" as="geometry" />
        </mxCell>
        <mxCell id="HhRDs5ZZaX0OzWnAWIKS-11" value="관리자 게시글 생성" style="ellipse;whiteSpace=wrap;html=1;" vertex="1" parent="1">
          <mxGeometry x="60" y="820" width="140" height="70" as="geometry" />
        </mxCell>
        <mxCell id="HhRDs5ZZaX0OzWnAWIKS-12" value="관리자 게시글 관리" style="ellipse;whiteSpace=wrap;html=1;" vertex="1" parent="1">
          <mxGeometry x="200" y="670" width="140" height="70" as="geometry" />
        </mxCell>
        <mxCell id="HhRDs5ZZaX0OzWnAWIKS-34" style="edgeStyle=orthogonalEdgeStyle;rounded=0;orthogonalLoop=1;jettySize=auto;html=1;entryX=0.5;entryY=1;entryDx=0;entryDy=0;" edge="1" parent="1" source="HhRDs5ZZaX0OzWnAWIKS-13" target="HhRDs5ZZaX0OzWnAWIKS-12">
          <mxGeometry relative="1" as="geometry" />
        </mxCell>
        <mxCell id="HhRDs5ZZaX0OzWnAWIKS-13" value="관리자 게시글 삭제" style="ellipse;whiteSpace=wrap;html=1;" vertex="1" parent="1">
          <mxGeometry x="340" y="820" width="140" height="70" as="geometry" />
        </mxCell>
        <mxCell id="HhRDs5ZZaX0OzWnAWIKS-65" style="edgeStyle=orthogonalEdgeStyle;rounded=0;orthogonalLoop=1;jettySize=auto;html=1;dashed=1;" edge="1" parent="1" source="HhRDs5ZZaX0OzWnAWIKS-14" target="HhRDs5ZZaX0OzWnAWIKS-20">
          <mxGeometry relative="1" as="geometry">
            <Array as="points">
              <mxPoint x="770" y="560" />
              <mxPoint x="1120" y="560" />
            </Array>
          </mxGeometry>
        </mxCell>
        <mxCell id="HhRDs5ZZaX0OzWnAWIKS-14" value="코스 신고&lt;br&gt;" style="ellipse;whiteSpace=wrap;html=1;" vertex="1" parent="1">
          <mxGeometry x="700" y="620" width="140" height="70" as="geometry" />
        </mxCell>
        <mxCell id="HhRDs5ZZaX0OzWnAWIKS-66" style="edgeStyle=orthogonalEdgeStyle;rounded=0;orthogonalLoop=1;jettySize=auto;html=1;dashed=1;" edge="1" parent="1" source="HhRDs5ZZaX0OzWnAWIKS-15" target="HhRDs5ZZaX0OzWnAWIKS-20">
          <mxGeometry relative="1" as="geometry">
            <Array as="points">
              <mxPoint x="910" y="560" />
              <mxPoint x="1120" y="560" />
            </Array>
          </mxGeometry>
        </mxCell>
        <mxCell id="HhRDs5ZZaX0OzWnAWIKS-15" value="코스 즐겨찾기" style="ellipse;whiteSpace=wrap;html=1;" vertex="1" parent="1">
          <mxGeometry x="840" y="620" width="140" height="70" as="geometry" />
        </mxCell>
        <mxCell id="HhRDs5ZZaX0OzWnAWIKS-67" style="edgeStyle=orthogonalEdgeStyle;rounded=0;orthogonalLoop=1;jettySize=auto;html=1;entryX=0.5;entryY=1;entryDx=0;entryDy=0;dashed=1;" edge="1" parent="1" source="HhRDs5ZZaX0OzWnAWIKS-16" target="HhRDs5ZZaX0OzWnAWIKS-20">
          <mxGeometry relative="1" as="geometry" />
        </mxCell>
        <mxCell id="HhRDs5ZZaX0OzWnAWIKS-16" value="코스 댓글 수정" style="ellipse;whiteSpace=wrap;html=1;" vertex="1" parent="1">
          <mxGeometry x="980" y="620" width="140" height="70" as="geometry" />
        </mxCell>
        <mxCell id="HhRDs5ZZaX0OzWnAWIKS-68" style="edgeStyle=orthogonalEdgeStyle;rounded=0;orthogonalLoop=1;jettySize=auto;html=1;entryX=0.5;entryY=1;entryDx=0;entryDy=0;dashed=1;" edge="1" parent="1" source="HhRDs5ZZaX0OzWnAWIKS-17" target="HhRDs5ZZaX0OzWnAWIKS-20">
          <mxGeometry relative="1" as="geometry" />
        </mxCell>
        <mxCell id="HhRDs5ZZaX0OzWnAWIKS-17" value="코스 댓글 작성" style="ellipse;whiteSpace=wrap;html=1;" vertex="1" parent="1">
          <mxGeometry x="1120" y="620" width="140" height="70" as="geometry" />
        </mxCell>
        <mxCell id="HhRDs5ZZaX0OzWnAWIKS-69" style="edgeStyle=orthogonalEdgeStyle;rounded=0;orthogonalLoop=1;jettySize=auto;html=1;entryX=0.5;entryY=1;entryDx=0;entryDy=0;dashed=1;" edge="1" parent="1" source="HhRDs5ZZaX0OzWnAWIKS-18" target="HhRDs5ZZaX0OzWnAWIKS-20">
          <mxGeometry relative="1" as="geometry">
            <Array as="points">
              <mxPoint x="1330" y="560" />
              <mxPoint x="1120" y="560" />
            </Array>
          </mxGeometry>
        </mxCell>
        <mxCell id="HhRDs5ZZaX0OzWnAWIKS-18" value="코스 댓글 삭제" style="ellipse;whiteSpace=wrap;html=1;" vertex="1" parent="1">
          <mxGeometry x="1260" y="620" width="140" height="70" as="geometry" />
        </mxCell>
        <mxCell id="HhRDs5ZZaX0OzWnAWIKS-70" style="edgeStyle=orthogonalEdgeStyle;rounded=0;orthogonalLoop=1;jettySize=auto;html=1;entryX=0.5;entryY=1;entryDx=0;entryDy=0;dashed=1;" edge="1" parent="1" source="HhRDs5ZZaX0OzWnAWIKS-19" target="HhRDs5ZZaX0OzWnAWIKS-20">
          <mxGeometry relative="1" as="geometry">
            <Array as="points">
              <mxPoint x="1470" y="560" />
              <mxPoint x="1120" y="560" />
            </Array>
          </mxGeometry>
        </mxCell>
        <mxCell id="HhRDs5ZZaX0OzWnAWIKS-71" value="&amp;lt;&amp;lt;확장&amp;gt;&amp;gt;" style="edgeLabel;html=1;align=center;verticalAlign=middle;resizable=0;points=[];" vertex="1" connectable="0" parent="HhRDs5ZZaX0OzWnAWIKS-70">
          <mxGeometry x="0.7945" y="3" relative="1" as="geometry">
            <mxPoint x="3" y="21" as="offset" />
          </mxGeometry>
        </mxCell>
        <mxCell id="HhRDs5ZZaX0OzWnAWIKS-19" value="코스 생성" style="ellipse;whiteSpace=wrap;html=1;" vertex="1" parent="1">
          <mxGeometry x="1400" y="620" width="140" height="70" as="geometry" />
        </mxCell>
        <mxCell id="HhRDs5ZZaX0OzWnAWIKS-81" style="edgeStyle=orthogonalEdgeStyle;rounded=0;orthogonalLoop=1;jettySize=auto;html=1;dashed=1;" edge="1" parent="1" source="HhRDs5ZZaX0OzWnAWIKS-20" target="HhRDs5ZZaX0OzWnAWIKS-8">
          <mxGeometry relative="1" as="geometry">
            <Array as="points">
              <mxPoint x="820" y="465" />
            </Array>
          </mxGeometry>
        </mxCell>
        <mxCell id="HhRDs5ZZaX0OzWnAWIKS-20" value="코스 상세 조회&lt;br&gt;/&lt;br&gt;댓글 조회" style="ellipse;whiteSpace=wrap;html=1;" vertex="1" parent="1">
          <mxGeometry x="1050" y="430" width="140" height="70" as="geometry" />
        </mxCell>
        <mxCell id="HhRDs5ZZaX0OzWnAWIKS-79" style="edgeStyle=orthogonalEdgeStyle;rounded=0;orthogonalLoop=1;jettySize=auto;html=1;dashed=1;" edge="1" parent="1" source="HhRDs5ZZaX0OzWnAWIKS-21" target="HhRDs5ZZaX0OzWnAWIKS-9">
          <mxGeometry relative="1" as="geometry" />
        </mxCell>
        <mxCell id="HhRDs5ZZaX0OzWnAWIKS-80" style="edgeStyle=orthogonalEdgeStyle;rounded=0;orthogonalLoop=1;jettySize=auto;html=1;entryX=1;entryY=0.5;entryDx=0;entryDy=0;dashed=1;" edge="1" parent="1" source="HhRDs5ZZaX0OzWnAWIKS-21" target="HhRDs5ZZaX0OzWnAWIKS-20">
          <mxGeometry relative="1" as="geometry">
            <Array as="points">
              <mxPoint x="1290" y="465" />
            </Array>
          </mxGeometry>
        </mxCell>
        <mxCell id="HhRDs5ZZaX0OzWnAWIKS-21" value="Use Case" style="ellipse;whiteSpace=wrap;html=1;" vertex="1" parent="1">
          <mxGeometry x="1220" y="240" width="140" height="70" as="geometry" />
        </mxCell>
        <mxCell id="HhRDs5ZZaX0OzWnAWIKS-72" style="edgeStyle=orthogonalEdgeStyle;rounded=0;orthogonalLoop=1;jettySize=auto;html=1;entryX=0.5;entryY=0;entryDx=0;entryDy=0;dashed=1;" edge="1" parent="1" source="HhRDs5ZZaX0OzWnAWIKS-22" target="HhRDs5ZZaX0OzWnAWIKS-21">
          <mxGeometry relative="1" as="geometry">
            <Array as="points">
              <mxPoint x="1000" y="160" />
              <mxPoint x="1290" y="160" />
            </Array>
          </mxGeometry>
        </mxCell>
        <mxCell id="HhRDs5ZZaX0OzWnAWIKS-22" value="Use Case" style="ellipse;whiteSpace=wrap;html=1;" vertex="1" parent="1">
          <mxGeometry x="940" y="50" width="140" height="70" as="geometry" />
        </mxCell>
        <mxCell id="HhRDs5ZZaX0OzWnAWIKS-73" style="edgeStyle=orthogonalEdgeStyle;rounded=0;orthogonalLoop=1;jettySize=auto;html=1;entryX=0.5;entryY=0;entryDx=0;entryDy=0;dashed=1;" edge="1" parent="1" source="HhRDs5ZZaX0OzWnAWIKS-23" target="HhRDs5ZZaX0OzWnAWIKS-21">
          <mxGeometry relative="1" as="geometry">
            <Array as="points">
              <mxPoint x="1140" y="160" />
              <mxPoint x="1290" y="160" />
            </Array>
          </mxGeometry>
        </mxCell>
        <mxCell id="HhRDs5ZZaX0OzWnAWIKS-23" value="Use Case" style="ellipse;whiteSpace=wrap;html=1;" vertex="1" parent="1">
          <mxGeometry x="1080" y="50" width="140" height="70" as="geometry" />
        </mxCell>
        <mxCell id="HhRDs5ZZaX0OzWnAWIKS-74" style="edgeStyle=orthogonalEdgeStyle;rounded=0;orthogonalLoop=1;jettySize=auto;html=1;exitX=0.5;exitY=1;exitDx=0;exitDy=0;entryX=0.5;entryY=0;entryDx=0;entryDy=0;dashed=1;" edge="1" parent="1" source="HhRDs5ZZaX0OzWnAWIKS-24" target="HhRDs5ZZaX0OzWnAWIKS-21">
          <mxGeometry relative="1" as="geometry" />
        </mxCell>
        <mxCell id="HhRDs5ZZaX0OzWnAWIKS-24" value="Use Case" style="ellipse;whiteSpace=wrap;html=1;" vertex="1" parent="1">
          <mxGeometry x="1220" y="50" width="140" height="70" as="geometry" />
        </mxCell>
        <mxCell id="HhRDs5ZZaX0OzWnAWIKS-76" style="edgeStyle=orthogonalEdgeStyle;rounded=0;orthogonalLoop=1;jettySize=auto;html=1;entryX=0.5;entryY=0;entryDx=0;entryDy=0;dashed=1;" edge="1" parent="1" source="HhRDs5ZZaX0OzWnAWIKS-25" target="HhRDs5ZZaX0OzWnAWIKS-21">
          <mxGeometry relative="1" as="geometry">
            <Array as="points">
              <mxPoint x="1430" y="160" />
              <mxPoint x="1290" y="160" />
            </Array>
          </mxGeometry>
        </mxCell>
        <mxCell id="HhRDs5ZZaX0OzWnAWIKS-25" value="Use Case" style="ellipse;whiteSpace=wrap;html=1;" vertex="1" parent="1">
          <mxGeometry x="1360" y="50" width="140" height="70" as="geometry" />
        </mxCell>
        <mxCell id="HhRDs5ZZaX0OzWnAWIKS-78" style="edgeStyle=orthogonalEdgeStyle;rounded=0;orthogonalLoop=1;jettySize=auto;html=1;entryX=0.5;entryY=0;entryDx=0;entryDy=0;dashed=1;" edge="1" parent="1" source="HhRDs5ZZaX0OzWnAWIKS-26" target="HhRDs5ZZaX0OzWnAWIKS-21">
          <mxGeometry relative="1" as="geometry">
            <Array as="points">
              <mxPoint x="1570" y="160" />
              <mxPoint x="1290" y="160" />
            </Array>
          </mxGeometry>
        </mxCell>
        <mxCell id="HhRDs5ZZaX0OzWnAWIKS-26" value="Use Case" style="ellipse;whiteSpace=wrap;html=1;" vertex="1" parent="1">
          <mxGeometry x="1500" y="50" width="140" height="70" as="geometry" />
        </mxCell>
        <mxCell id="HhRDs5ZZaX0OzWnAWIKS-27" value="" style="endArrow=classic;html=1;rounded=0;entryX=1;entryY=0.5;entryDx=0;entryDy=0;" edge="1" parent="1" source="GOCetqZbydDTcwRi5FND-3" target="HhRDs5ZZaX0OzWnAWIKS-5">
          <mxGeometry width="50" height="50" relative="1" as="geometry">
            <mxPoint x="540" y="500" as="sourcePoint" />
            <mxPoint x="590" y="450" as="targetPoint" />
          </mxGeometry>
        </mxCell>
        <mxCell id="HhRDs5ZZaX0OzWnAWIKS-28" value="" style="endArrow=classic;html=1;rounded=0;entryX=0.5;entryY=0;entryDx=0;entryDy=0;" edge="1" parent="1" source="GOCetqZbydDTcwRi5FND-3" target="HhRDs5ZZaX0OzWnAWIKS-12">
          <mxGeometry width="50" height="50" relative="1" as="geometry">
            <mxPoint x="540" y="500" as="sourcePoint" />
            <mxPoint x="590" y="450" as="targetPoint" />
          </mxGeometry>
        </mxCell>
        <mxCell id="HhRDs5ZZaX0OzWnAWIKS-35" value="" style="endArrow=classic;html=1;rounded=0;exitX=0;exitY=0.3333333333333333;exitDx=0;exitDy=0;exitPerimeter=0;" edge="1" parent="1" source="GOCetqZbydDTcwRi5FND-3" target="HhRDs5ZZaX0OzWnAWIKS-3">
          <mxGeometry width="50" height="50" relative="1" as="geometry">
            <mxPoint x="410" y="483.9473684210525" as="sourcePoint" />
            <mxPoint x="329.9999999999975" y="505" as="targetPoint" />
          </mxGeometry>
        </mxCell>
        <mxCell id="HhRDs5ZZaX0OzWnAWIKS-36" value="" style="endArrow=classic;html=1;rounded=0;entryX=1;entryY=1;entryDx=0;entryDy=0;" edge="1" parent="1" source="GOCetqZbydDTcwRi5FND-3" target="HhRDs5ZZaX0OzWnAWIKS-2">
          <mxGeometry width="50" height="50" relative="1" as="geometry">
            <mxPoint x="410" y="470" as="sourcePoint" />
            <mxPoint x="323.6632132910056" y="449.55159160937274" as="targetPoint" />
          </mxGeometry>
        </mxCell>
        <mxCell id="HhRDs5ZZaX0OzWnAWIKS-37" value="" style="endArrow=classic;html=1;rounded=0;entryX=1;entryY=1;entryDx=0;entryDy=0;" edge="1" parent="1" source="GOCetqZbydDTcwRi5FND-3" target="HhRDs5ZZaX0OzWnAWIKS-4">
          <mxGeometry width="50" height="50" relative="1" as="geometry">
            <mxPoint x="420" y="480" as="sourcePoint" />
            <mxPoint x="333.6632132910056" y="459.55159160937274" as="targetPoint" />
          </mxGeometry>
        </mxCell>
        <mxCell id="HhRDs5ZZaX0OzWnAWIKS-39" value="" style="endArrow=classic;html=1;rounded=0;entryX=1;entryY=1;entryDx=0;entryDy=0;" edge="1" parent="1" source="GOCetqZbydDTcwRi5FND-3" target="HhRDs5ZZaX0OzWnAWIKS-6">
          <mxGeometry width="50" height="50" relative="1" as="geometry">
            <mxPoint x="410" y="459.0632836647644" as="sourcePoint" />
            <mxPoint x="310.0051006962617" y="319.4922942185772" as="targetPoint" />
          </mxGeometry>
        </mxCell>
        <mxCell id="HhRDs5ZZaX0OzWnAWIKS-40" value="" style="endArrow=classic;html=1;rounded=0;entryX=1;entryY=0.5;entryDx=0;entryDy=0;" edge="1" parent="1" source="GOCetqZbydDTcwRi5FND-1" target="HhRDs5ZZaX0OzWnAWIKS-5">
          <mxGeometry width="50" height="50" relative="1" as="geometry">
            <mxPoint x="530" y="490" as="sourcePoint" />
            <mxPoint x="580" y="440" as="targetPoint" />
          </mxGeometry>
        </mxCell>
        <mxCell id="HhRDs5ZZaX0OzWnAWIKS-41" value="" style="endArrow=classic;html=1;rounded=0;entryX=1;entryY=0.5;entryDx=0;entryDy=0;" edge="1" parent="1" source="GOCetqZbydDTcwRi5FND-1" target="HhRDs5ZZaX0OzWnAWIKS-3">
          <mxGeometry width="50" height="50" relative="1" as="geometry">
            <mxPoint x="420" y="469.0632836647644" as="sourcePoint" />
            <mxPoint x="320.0051006962617" y="329.4922942185772" as="targetPoint" />
          </mxGeometry>
        </mxCell>
        <mxCell id="HhRDs5ZZaX0OzWnAWIKS-42" value="" style="endArrow=classic;html=1;rounded=0;entryX=0.987;entryY=0.661;entryDx=0;entryDy=0;entryPerimeter=0;" edge="1" parent="1" source="GOCetqZbydDTcwRi5FND-1" target="HhRDs5ZZaX0OzWnAWIKS-2">
          <mxGeometry width="50" height="50" relative="1" as="geometry">
            <mxPoint x="430" y="479.0632836647644" as="sourcePoint" />
            <mxPoint x="330.0051006962617" y="339.4922942185772" as="targetPoint" />
          </mxGeometry>
        </mxCell>
        <mxCell id="HhRDs5ZZaX0OzWnAWIKS-43" value="" style="endArrow=classic;html=1;rounded=0;entryX=1;entryY=0.5;entryDx=0;entryDy=0;" edge="1" parent="1" source="GOCetqZbydDTcwRi5FND-1" target="HhRDs5ZZaX0OzWnAWIKS-4">
          <mxGeometry width="50" height="50" relative="1" as="geometry">
            <mxPoint x="440" y="489.0632836647644" as="sourcePoint" />
            <mxPoint x="340.0051006962617" y="349.4922942185772" as="targetPoint" />
          </mxGeometry>
        </mxCell>
        <mxCell id="HhRDs5ZZaX0OzWnAWIKS-44" value="" style="endArrow=classic;html=1;rounded=0;entryX=1;entryY=0.5;entryDx=0;entryDy=0;" edge="1" parent="1" source="GOCetqZbydDTcwRi5FND-1" target="HhRDs5ZZaX0OzWnAWIKS-6">
          <mxGeometry width="50" height="50" relative="1" as="geometry">
            <mxPoint x="450" y="499.0632836647644" as="sourcePoint" />
            <mxPoint x="350.0051006962617" y="359.4922942185772" as="targetPoint" />
          </mxGeometry>
        </mxCell>
        <mxCell id="HhRDs5ZZaX0OzWnAWIKS-45" value="" style="endArrow=classic;html=1;rounded=0;" edge="1" parent="1" source="GOCetqZbydDTcwRi5FND-2" target="HhRDs5ZZaX0OzWnAWIKS-6">
          <mxGeometry width="50" height="50" relative="1" as="geometry">
            <mxPoint x="480" y="311.3636363636365" as="sourcePoint" />
            <mxPoint x="329.9999999999975" y="225" as="targetPoint" />
          </mxGeometry>
        </mxCell>
        <mxCell id="HhRDs5ZZaX0OzWnAWIKS-46" value="" style="endArrow=classic;html=1;rounded=0;entryX=0.979;entryY=0.722;entryDx=0;entryDy=0;entryPerimeter=0;" edge="1" parent="1" source="GOCetqZbydDTcwRi5FND-2" target="HhRDs5ZZaX0OzWnAWIKS-7">
          <mxGeometry width="50" height="50" relative="1" as="geometry">
            <mxPoint x="490" y="321.3636363636365" as="sourcePoint" />
            <mxPoint x="339.9999999999975" y="235" as="targetPoint" />
          </mxGeometry>
        </mxCell>
        <mxCell id="HhRDs5ZZaX0OzWnAWIKS-47" value="" style="endArrow=classic;html=1;rounded=0;entryX=1;entryY=0.5;entryDx=0;entryDy=0;" edge="1" parent="1" source="GOCetqZbydDTcwRi5FND-2" target="HhRDs5ZZaX0OzWnAWIKS-4">
          <mxGeometry width="50" height="50" relative="1" as="geometry">
            <mxPoint x="480" y="164.16062842065082" as="sourcePoint" />
            <mxPoint x="321.3666879111677" y="208.16157953656955" as="targetPoint" />
          </mxGeometry>
        </mxCell>
        <mxCell id="HhRDs5ZZaX0OzWnAWIKS-50" value="" style="endArrow=classic;html=1;rounded=0;entryX=0.354;entryY=0.037;entryDx=0;entryDy=0;entryPerimeter=0;" edge="1" parent="1" source="GOCetqZbydDTcwRi5FND-2" target="HhRDs5ZZaX0OzWnAWIKS-8">
          <mxGeometry width="50" height="50" relative="1" as="geometry">
            <mxPoint x="810" y="460" as="sourcePoint" />
            <mxPoint x="860" y="410" as="targetPoint" />
          </mxGeometry>
        </mxCell>
        <mxCell id="HhRDs5ZZaX0OzWnAWIKS-51" value="" style="endArrow=classic;html=1;rounded=0;" edge="1" parent="1" source="GOCetqZbydDTcwRi5FND-2" target="HhRDs5ZZaX0OzWnAWIKS-9">
          <mxGeometry width="50" height="50" relative="1" as="geometry">
            <mxPoint x="490" y="174.16062842065082" as="sourcePoint" />
            <mxPoint x="331.3666879111677" y="218.16157953656955" as="targetPoint" />
          </mxGeometry>
        </mxCell>
        <mxCell id="HhRDs5ZZaX0OzWnAWIKS-52" value="" style="endArrow=classic;html=1;rounded=0;entryX=0;entryY=0.5;entryDx=0;entryDy=0;" edge="1" parent="1" source="GOCetqZbydDTcwRi5FND-1" target="HhRDs5ZZaX0OzWnAWIKS-9">
          <mxGeometry width="50" height="50" relative="1" as="geometry">
            <mxPoint x="810" y="460" as="sourcePoint" />
            <mxPoint x="860" y="410" as="targetPoint" />
          </mxGeometry>
        </mxCell>
        <mxCell id="HhRDs5ZZaX0OzWnAWIKS-53" value="" style="endArrow=classic;html=1;rounded=0;" edge="1" parent="1" source="GOCetqZbydDTcwRi5FND-1" target="HhRDs5ZZaX0OzWnAWIKS-8">
          <mxGeometry width="50" height="50" relative="1" as="geometry">
            <mxPoint x="500" y="184.16062842065082" as="sourcePoint" />
            <mxPoint x="341.3666879111677" y="228.16157953656955" as="targetPoint" />
          </mxGeometry>
        </mxCell>
        <mxCell id="HhRDs5ZZaX0OzWnAWIKS-54" value="" style="endArrow=classic;html=1;rounded=0;" edge="1" parent="1" source="GOCetqZbydDTcwRi5FND-3" target="HhRDs5ZZaX0OzWnAWIKS-8">
          <mxGeometry width="50" height="50" relative="1" as="geometry">
            <mxPoint x="510" y="324.2539780972702" as="sourcePoint" />
            <mxPoint x="698.9809058161195" y="377.84868704020664" as="targetPoint" />
          </mxGeometry>
        </mxCell>
        <mxCell id="HhRDs5ZZaX0OzWnAWIKS-55" value="" style="endArrow=classic;html=1;rounded=0;entryX=0.062;entryY=0.735;entryDx=0;entryDy=0;entryPerimeter=0;" edge="1" parent="1" source="GOCetqZbydDTcwRi5FND-3" target="HhRDs5ZZaX0OzWnAWIKS-9">
          <mxGeometry width="50" height="50" relative="1" as="geometry">
            <mxPoint x="510" y="475.1807895426623" as="sourcePoint" />
            <mxPoint x="700.9831354531475" y="413.8215946392663" as="targetPoint" />
          </mxGeometry>
        </mxCell>
      </root>
    </mxGraphModel>
  </diagram>
</mxfile>
